<svg width="110" height="1255" viewBox="0 0 110 1255" fill="none" xmlns="http://www.w3.org/2000/svg">
<path d="M-0.81352 1254.99L-0.813522 1197.7L11.282 1197.7L11.282 1205.18C11.282 1209.93 11.836 1212.93 12.9901 1214.09C14.1443 1215.24 16.8681 1215.84 21.1615 1215.84L93.873 1215.84L93.873 1195.9C93.873 1188.79 93.2729 1183.48 92.0264 1179.97C90.8261 1176.46 88.7486 1173.92 85.9325 1172.35C83.1625 1170.83 79.8385 1169.72 75.9144 1169.03C71.9441 1168.29 67.2352 1167.92 61.7415 1167.92L59.8025 1167.92L59.8025 1155.69L105.969 1155.69L105.969 1254.99L93.873 1254.99L93.873 1248.8C93.873 1244.1 93.319 1241.14 92.2111 1239.99C91.1031 1238.83 88.3793 1238.28 83.9935 1238.28L21.1153 1238.28C16.7757 1238.28 14.0519 1238.83 12.8978 1239.99C11.7898 1241.14 11.2358 1244.05 11.2358 1248.8L11.2358 1254.99L-0.859686 1254.99L-0.81352 1254.99ZM105.969 1144.56L93.873 1144.56L93.873 1138.38C93.873 1133.67 93.319 1130.71 92.211 1129.56C91.1031 1128.4 88.3331 1127.85 83.9473 1127.85L21.0692 1127.85C16.7296 1127.85 14.0058 1128.4 12.944 1129.56C11.836 1130.71 11.282 1133.62 11.282 1138.38L11.282 1144.56L-0.813525 1144.56L-0.813529 1039.53L41.6592 1039.53L41.6592 1051.63C29.5176 1051.95 21.3923 1053.94 17.3297 1057.58C13.2671 1061.23 11.2358 1068.66 11.2358 1079.79L11.2358 1105.41L44.0137 1105.41L44.0137 1099.36C44.0137 1092.67 42.8595 1088.29 40.5512 1086.21C38.2429 1084.13 32.9338 1082.84 24.624 1082.33L24.5316 1070.23L78.0842 1070.23L77.9919 1082.33C68.851 1082.79 62.9418 1084.04 60.2641 1086.16C57.5865 1088.24 56.2477 1092.58 56.2477 1099.23L56.2477 1105.41L93.8269 1105.41L93.8269 1077.44C93.8269 1068.11 91.6571 1061.69 87.3174 1058.18C82.9778 1054.72 74.114 1052.51 60.7258 1051.58L60.7258 1039.49L105.922 1039.49L105.922 1144.52L105.969 1144.56ZM10.9588 985.427L10.9588 987.505C10.9588 995.999 13.4979 1002.23 18.5762 1006.11C23.7006 1009.99 31.9644 1012.02 43.4135 1012.16L43.4135 1024.39L-0.81353 1024.39L-0.813534 923.796L43.4135 923.796L43.4135 936.03C32.1029 936.122 23.8853 938.107 18.7147 942.031C13.5441 945.909 10.9588 952.095 10.9588 960.59L10.9588 962.944L83.9935 962.944C88.2869 962.944 91.0107 962.344 92.1649 961.19C93.319 960.036 93.873 957.035 93.873 952.326L93.873 943.231L105.969 943.231L105.969 1005.14L93.873 1005.14L93.873 995.861C93.873 991.152 93.319 988.243 92.211 987.089C91.1031 985.935 88.3793 985.381 83.9935 985.381L10.9588 985.381L10.9588 985.427ZM10.9588 877.491L10.9588 879.568C10.9588 888.063 13.4979 894.295 18.5762 898.173C23.7006 902.051 31.9644 904.083 43.4135 904.221L43.4135 916.455L-0.813535 916.455L-0.813539 815.859L43.4135 815.859L43.4135 828.093C32.1029 828.186 23.8853 830.171 18.7147 834.095C13.5441 837.973 10.9588 844.159 10.9588 852.654L10.9588 855.008L83.9935 855.008C88.2869 855.008 91.0107 854.408 92.1649 853.254C93.319 852.1 93.873 849.099 93.873 844.39L93.873 835.295L105.969 835.295L105.969 897.204L93.873 897.204L93.873 887.924C93.873 883.216 93.319 880.307 92.211 879.153C91.103 877.999 88.3792 877.445 83.9935 877.445L10.9588 877.445L10.9588 877.491ZM105.969 808.565L93.873 808.565L93.873 802.379C93.873 797.67 93.319 794.715 92.211 793.561C91.103 792.407 88.3331 791.853 83.9473 791.853L21.0692 791.853C16.7296 791.853 14.0058 792.407 12.9439 793.561C11.836 794.715 11.282 797.624 11.282 802.379L11.282 808.565L-0.813539 808.565L-0.813544 703.537L41.6592 703.537L41.6592 715.633C29.5175 715.956 21.3923 717.941 17.3297 721.588C13.2671 725.235 11.2358 732.668 11.2358 743.794L11.2358 769.416L44.0137 769.416L44.0137 763.369C44.0137 756.674 42.8595 752.289 40.5512 750.211C38.2429 748.134 32.9338 746.841 24.6239 746.333L24.5316 734.238L78.0842 734.238L77.9919 746.333C68.851 746.795 62.9418 748.041 60.2641 750.165C57.5865 752.243 56.2477 756.582 56.2477 763.23L56.2477 769.416L93.8268 769.416L93.8268 741.44C93.8268 732.114 91.657 725.697 87.3174 722.188C82.9778 718.726 74.1139 716.51 60.7258 715.587L60.7258 703.491L105.922 703.491L105.922 808.519L105.969 808.565ZM43.4135 649.292L43.4135 630.456C43.4135 622.885 42.1209 617.345 39.5817 613.837C37.0426 610.328 32.9338 608.574 27.3477 608.574C21.577 608.574 17.4682 610.236 15.0214 613.606C12.5284 616.976 11.282 622.793 11.282 631.01L11.282 649.292L43.4135 649.292ZM83.9473 649.292C88.2869 649.292 90.9645 648.692 92.1187 647.538C93.2728 646.384 93.8268 643.383 93.8268 638.628L93.8268 631.149L105.922 631.149L105.922 688.441L93.8268 688.441L93.8268 682.255C93.8268 677.546 93.2728 674.591 92.1649 673.437C91.0569 672.283 88.3331 671.729 83.9473 671.729L21.1153 671.729C16.7757 671.729 14.0519 672.283 12.8978 673.437C11.7898 674.591 11.2358 677.5 11.2358 682.255L11.2358 688.441L-0.859711 688.441L-0.859713 624.64C-0.859714 611.251 1.21776 601.372 5.41887 594.862C9.61998 588.399 16.0832 585.168 24.7624 585.168C32.426 585.168 38.5661 587.753 43.1365 592.923C47.707 598.048 50.6154 605.665 51.8157 615.776C52.9699 608.158 55.0935 602.803 58.279 599.756C61.5106 596.709 67.0044 594.955 74.8988 594.447L84.4551 593.755C88.1946 593.477 90.5952 593.016 91.7494 592.37C92.9035 591.723 93.4575 590.569 93.4575 589.046C93.4575 585.952 87.6406 584.337 75.9606 584.106C75.7297 584.106 75.5912 584.106 75.4989 584.106L75.4989 573.995C76.1452 573.903 76.8839 573.811 77.6226 573.765C78.3612 573.718 79.4692 573.718 80.8542 573.718C90.6414 573.718 97.7971 575.473 102.275 579.028C106.799 582.536 109.062 588.168 109.062 595.832C109.062 602.157 107.353 607.096 103.845 610.697C100.382 614.252 95.5811 616.145 89.3949 616.33L76.8839 616.791C68.574 617.114 62.8956 618.961 59.8948 622.331C56.894 625.748 55.4167 632.165 55.4167 641.629L55.4167 649.246L83.855 649.246L83.9473 649.292ZM105.922 562.085L61.8338 562.085L61.8338 549.666C72.452 547.958 80.5772 544.034 86.1633 537.847C91.7955 531.707 94.6117 523.674 94.6117 513.841C94.6117 506.732 93.4113 501.284 91.0107 497.544C88.6101 493.759 85.1938 491.912 80.6695 491.912C76.6069 491.912 73.3291 493.343 70.79 496.252C68.2508 499.114 66.2657 503.731 64.7884 510.055L60.7719 527.414C57.8635 539.833 53.9394 548.789 48.9996 554.236C44.0598 559.684 37.4119 562.454 29.1482 562.454C19.084 562.454 11.0511 558.945 5.00337 551.928C-1.09055 544.957 -4.09134 535.585 -4.09134 523.859C-4.09134 518.088 -3.16802 512.641 -1.41371 507.562C0.386764 502.53 3.11056 497.637 6.85001 492.836L-0.905885 487.249L-0.905886 477.739L39.5356 477.739L39.5356 489.789C29.8407 491.635 22.3156 495.421 17.0065 501.284C11.6974 507.101 8.97365 514.441 8.97365 523.259C8.97365 529.676 10.174 534.662 12.5746 538.171C14.9752 541.679 18.3454 543.433 22.6388 543.433C26.2859 543.433 29.1482 542.187 31.318 539.694C33.4878 537.201 35.196 533.231 36.4424 527.737L41.3822 506.177C43.9675 494.774 48.0301 486.234 53.57 480.601C59.11 474.969 66.1272 472.153 74.6679 472.153C84.7783 472.153 93.042 475.846 99.4129 483.279C105.784 490.712 109.015 500.314 109.015 512.133C109.015 518.088 107.907 523.998 105.738 529.861C103.568 535.724 100.198 541.633 95.7658 547.681L105.83 551.189L105.83 562.131L105.922 562.085ZM69.3588 374.604L83.9935 374.604C88.3331 374.604 91.0569 374.004 92.211 372.896C93.319 371.742 93.873 368.834 93.873 364.078L93.873 359.785L105.968 359.785L105.968 413.291L93.873 413.291L93.873 407.105C93.873 402.396 93.319 399.442 92.211 398.287C91.103 397.133 88.3792 396.579 83.9935 396.579L21.1153 396.579C16.7757 396.579 14.0519 397.133 12.8978 398.287C11.7898 399.442 11.2358 402.35 11.2358 407.105L11.2358 413.291L-0.859723 413.291L-0.859725 359L11.2358 359L11.2358 364.078C11.2358 368.787 11.7898 371.742 12.8978 372.896C14.0057 374.05 16.7295 374.604 21.1153 374.604L51.2156 374.604L17.4682 338.595C16.4987 337.671 15.6677 337.025 15.0676 336.563C14.4212 336.148 13.8672 335.963 13.3594 335.963C12.6208 335.963 12.1129 336.471 11.7898 337.487C11.4666 338.502 11.2819 340.072 11.2819 342.242L11.2819 349.305L-0.81356 349.305L-0.813562 295.522L11.2819 295.522L11.2819 299.169C11.2819 303.37 12.3438 307.479 14.4212 311.541C16.4987 315.604 20.192 320.498 25.5011 326.268L39.8126 341.78L85.7939 309.418C89.0717 307.063 91.2415 304.94 92.3033 303.047C93.3652 301.154 93.873 298.153 93.873 294.091L93.873 288.643L105.968 288.643L105.968 347.966L93.873 347.966L93.873 339.426C93.873 336.656 93.6422 334.855 93.2728 334.024C92.8573 333.193 92.1187 332.778 91.0107 332.778C90.3182 332.778 89.6257 332.916 88.8409 333.239C88.0561 333.563 86.9942 334.163 85.6093 335.132L54.0779 357.107L69.405 374.65L69.3588 374.604ZM83.9934 228.027C88.2869 228.027 91.0107 227.427 92.1648 226.273C93.319 225.119 93.873 222.118 93.873 217.409L93.873 208.13L105.968 208.13L105.968 270.177L93.873 270.177L93.873 260.897C93.873 256.188 93.319 253.28 92.211 252.126C91.103 250.972 88.3792 250.418 83.9934 250.418L61.3259 250.418L22.3156 276.825C18.1607 279.641 15.2984 282.134 13.6826 284.442C12.0668 286.704 11.2819 289.336 11.2819 292.244L11.2819 297.507L-0.813562 297.507L-0.813564 241L11.2819 241L11.2819 248.756C11.2819 251.202 11.5589 252.957 12.1129 254.065C12.6669 255.173 13.4979 255.727 14.6521 255.727C15.3445 255.727 16.1755 255.542 17.0065 255.173C17.8837 254.803 18.8532 254.249 19.915 253.511L44.937 235.506L18.9917 216.439C17.8837 215.655 17.0065 215.101 16.314 214.824C15.6215 214.5 14.9291 214.362 14.1442 214.362C13.2209 214.362 12.4823 214.87 12.0206 215.839C11.5128 216.809 11.2819 218.24 11.2819 220.133L11.2819 229.504L-0.813565 229.504L-0.813567 179.968L11.2819 179.968L11.2819 183.615C11.2819 186.431 11.7436 188.694 12.7131 190.448C13.6826 192.156 15.5292 194.049 18.3453 195.988L61.3259 227.889L83.9934 227.889L83.9934 228.027ZM105.968 176.968L93.873 176.968L93.873 170.135C93.873 165.426 93.319 162.471 92.211 161.317C91.103 160.163 88.3792 159.609 83.9934 159.609L21.1153 159.609C16.7757 159.609 14.0519 160.163 12.8977 161.317C11.7898 162.471 11.2358 165.38 11.2358 170.135L11.2358 176.968L-0.859733 176.968L-0.859736 119.352L11.2358 119.352L11.2358 126.185C11.2358 130.94 11.7898 133.895 12.8977 135.002C14.0057 136.157 16.7295 136.711 21.1153 136.711L83.9934 136.711C88.3331 136.711 91.0569 136.157 92.211 135.002C93.319 133.848 93.873 130.94 93.873 126.185L93.873 119.352L105.968 119.352L105.968 176.968ZM105.968 70.4624L21.5308 100.378C17.5605 101.763 14.8829 103.379 13.4517 105.133C11.9744 106.887 11.2819 109.427 11.2819 112.658L11.2819 117.275L-0.81357 117.275L-0.813572 61.46L11.2819 61.46L11.2819 69.7238C11.2819 72.7246 11.6513 74.8481 12.3899 76.187C13.1747 77.5258 14.3289 78.1721 15.9447 78.1721C16.868 78.1721 18.0222 77.9874 19.361 77.6643C20.6998 77.3411 22.2694 76.8333 24.0238 76.2332L79.423 56.428L22.7773 35.2838C21.577 34.776 20.2843 34.3606 18.9917 34.0836C17.7452 33.8066 16.6372 33.6681 15.76 33.6681C14.0519 33.6681 12.8516 34.3145 12.2514 35.6532C11.6051 36.9921 11.2819 39.6696 11.2819 43.686L11.2819 50.7495L-0.813573 50.7495L-0.813575 -0.0332033L11.2819 -0.0332038L11.2819 3.15222C11.2819 6.93787 11.9283 9.75415 13.2671 11.6007C14.5597 13.4474 17.422 15.2015 21.8539 16.8174L105.968 48.3489L105.968 70.4624Z" fill="white" fill-opacity="0.31"/>
</svg>
