<svg width="14" height="14" viewBox="0 0 14 14" fill="none" xmlns="http://www.w3.org/2000/svg">
<path d="M6.78889 13.5778C10.5383 13.5778 13.5778 10.5383 13.5778 6.78889C13.5778 3.03949 10.5383 0 6.78889 0C3.03949 0 0 3.03949 0 6.78889C0 10.5383 3.03949 13.5778 6.78889 13.5778Z" fill="#039BE5"/>
<path d="M3.10686 6.64185L9.65247 4.11808C9.95627 4.00832 10.2216 4.19219 10.1232 4.65157L10.1237 4.65101L9.00922 9.90165C8.92663 10.2739 8.70542 10.3644 8.39596 10.189L6.69874 8.93819L5.88011 9.72683C5.7896 9.81735 5.71322 9.89373 5.53784 9.89373L5.65834 8.16652L8.80386 5.3248C8.94077 5.2043 8.77331 5.13641 8.59284 5.25635L4.70564 7.70374L3.02992 7.181C2.66614 7.06559 2.65822 6.81723 3.10686 6.64185Z" fill="white"/>
</svg>
